<?xml version="1.0" encoding="UTF-8" standalone="no"?><!DOCTYPE svg PUBLIC "-//W3C//DTD SVG 1.1//EN" "http://www.w3.org/Graphics/SVG/1.1/DTD/svg11.dtd"><svg width="100%" height="100%" viewBox="0 0 1868 1870" version="1.1" xmlns="http://www.w3.org/2000/svg" xmlns:xlink="http://www.w3.org/1999/xlink" xml:space="preserve" xmlns:serif="http://www.serif.com/" style="fill-rule:evenodd;clip-rule:evenodd;stroke-linejoin:round;stroke-miterlimit:2;"><g><path d="M476.183,234.203c17.387,3.738 21.748,4.676 222.291,2.425c7.42,0.187 7.008,1.405 14.106,0.355c17.225,-2.549 17.215,1.515 217.655,0.52l9.351,10.169c-1.516,16.223 -1.094,15.762 -1.094,103.921c-0,64.534 -0.025,104.171 0.069,105.345c1.191,14.916 9.149,12.176 215.481,12.465c4.423,0.963 8.845,1.925 13.268,2.888l6.878,0.317c-3.788,9.031 -4.777,9.307 -4.474,208.279c0.019,12.396 2.418,11.658 4.812,17c-2.626,11.478 -5.111,10.611 -5.158,22.548c-0.783,201.495 -0.714,201.723 4.343,218.456c-21.85,-1.588 -58.474,0.356 -151.584,-9.426c-5.739,-0.603 -71.38,-7.499 -72.133,0.747c-0.096,1.053 0.513,0.834 6.926,11.255c39.346,0.373 39.081,-0.687 77.849,5.155c178.5,26.898 305.627,170.244 344.679,313.468c4.02,12.843 4.032,12.749 4.341,13.87c0.905,3.286 0.196,2.827 1.134,6.231c1.922,4.465 0.798,4.366 13.067,59.344c0.199,11.029 -4.47,58.035 13.113,58.72c4.324,0.169 215.81,0.301 217.284,-0.078c3.648,-0.938 5.127,-6.18 8.775,-7.119l4.961,5.16c89.009,-0.27 88.75,2.761 177.297,-2.442c19.634,3.621 19.243,3.59 39.335,5.374l8.873,0.039c-5.03,65.739 2.804,458.252 -4.247,465.023c-0.648,0.622 -0.82,0.142 -11.069,1.921c-13.213,-1.76 -26.425,-3.521 -39.638,-5.281l-26.141,-1.66c-12.869,-4.653 -12.482,-4.387 -26.39,-6.033c-12.937,-4.625 -12.527,-4.315 -26.331,-6.621c-1.938,-0.975 -2.118,1.394 -26.014,-7.677c-44.151,-16.759 -43.683,-17.134 -85.092,-39.888c-9.231,-7.64 -9.16,-7.01 -19.763,-13.023c-9.4,-7.976 -9.268,-7.302 -19.474,-13.486c-16.574,-16.534 -17.584,-14.523 -34.574,-30.634c-2.154,-2.246 -4.308,-4.492 -6.463,-6.737c-3.505,-3.473 -3.151,-3.145 -6.634,-6.573c-1.74,-1.713 -0.797,-2.013 -2.84,-3.773c-5.483,-4.723 -5.026,-4.707 -10.21,-9.563c-5.194,-4.996 -4.614,-4.976 -11.255,-8.265l-1.821,-4.992c-11.838,-14.189 -10.555,-14.697 -23.909,-27.953l-1.773,-5.478c-5.648,-7.295 -5.43,-7.048 -11.649,-14.034l-1.699,-5.574c-5.184,-7.728 -5.007,-7.484 -10.879,-14.402c-1.92,-7.741 -2.418,-7.024 -7.124,-12.84c-9.941,-11.022 -4.512,-13.526 -13.254,-26.169c-0.616,-2.564 -3.586,-14.922 -10.582,-31.222l-2.699,-1.472c-1.455,-6.082 -2.909,-12.165 -4.364,-18.247c-10.275,-42.341 -8.804,-42.188 -12.172,-85.969c-1.159,-9.388 -0.365,-11.841 -9.945,-11.896c-9.783,49.678 2.25,50.111 0.082,182.047c-158.385,-2.479 -427.235,-0.633 -464.384,-0.378c-0.682,-39.164 -0.315,-38.71 -3.205,-78.058c5.766,-36.344 11.956,-135.607 11.192,-138.347c-12.686,-45.491 -14.922,29.438 -15.007,32.285c-4.395,147.324 -94.878,241.097 -110.427,257.211c-2.153,2.228 -4.305,4.457 -6.458,6.685c-2.128,2.262 -4.256,4.523 -6.383,6.785c-6.453,6.717 -12.161,12.065 -13.248,13.083c-2.247,2.144 -4.493,4.289 -6.74,6.433c-2.243,2.129 -4.486,4.258 -6.729,6.388c-60.142,57.194 -168.846,100.241 -203.846,105.24c-30.024,4.288 -29.223,5.883 -59.069,8.1c-12.658,0.74 -25.316,1.48 -37.974,2.22c-9.041,-34.603 -3.684,-34.777 -2.474,-75.608l0.634,-6.537c2.46,-10.923 4.921,-21.847 7.381,-32.77c1.419,-4.275 15.104,-45.493 16.658,-53.787c4.887,-26.081 23.306,-53.535 24.124,-57.385c1.582,-7.447 7.623,-4.799 7.073,-12.782c-0.079,-1.152 -0.182,-2.642 6.575,-12.844c1.094,-1.652 3.93,1.164 6.069,-7.117c1.178,-4.562 2.461,-3.345 5.814,-6.999c5.062,-5.516 2.335,-6.87 7.567,-12.532c8.249,-8.726 9.192,-7.984 13.198,-19.291c1.028,-1.101 6.376,-6.833 13.077,-13.544c20.374,-18.822 20.078,-18.547 38.854,-39.255c3.845,-2.902 7.689,-5.804 11.534,-8.706c10.807,-8.65 10.745,-8.143 21.141,-17.827c15.985,-10.308 16.019,-9.25 17.269,-10.26c9.582,-7.747 10.302,-5.652 19.994,-13.007c9.747,-7.396 10.316,-5.566 20.275,-12.492c47.803,-33.249 140.675,-41.098 147.057,-42.84c73.886,-20.167 -53.304,-3.193 -159.402,-0.842c10.075,-52.036 -4.314,-410.213 7.057,-469.299c19.486,5.937 222.018,5.867 227.736,-1.04c4.494,-5.428 5.732,-204.142 -0.177,-227.708l0.258,-7.87c-0.047,-16.871 -0.573,-207.749 0.028,-210.887c2.485,-12.981 -4.423,-9.207 -11.198,-12.073c-200.99,-0.054 -201.806,-1.188 -214.361,6.12c-3.997,-1.302 -5.65,-6.82 -9.646,-8.122c-4.127,-1.344 -8.662,0.579 -12.998,0.747c-0.573,0.022 -66.032,0.015 -72.449,0.015c-127.014,-0 -128.08,2.169 -146.123,-7.215c0.185,-1.113 2.664,-1.018 1.876,-216.303c4.942,-4.958 4.24,-4.955 6.339,-12.105l468.573,768.397c-2.956,1.465 -6.636,-4.805 -10.777,5.339c-7.04,17.246 4.46,18.021 4.46,232.809c0.001,43.904 0.002,87.808 0.003,131.713c0.009,14.858 1.961,14.237 11.722,23.53c16.495,-3.287 212.775,-5.76 269.869,0.126c138.712,7.04 150.503,7.48 144.6,-3.695c-1.513,-2.865 -93.602,-5.974 -138.448,-25.481c-19.933,-8.671 -22.864,-9.195 -24.97,-9.571c-7.575,-1.354 -5.718,-5.188 -13.168,-6.572c-7.52,-1.397 -5.514,-5.262 -13.106,-6.644c-7.552,-1.375 -5.442,-5.036 -12.86,-7.004c-7.419,-0.472 -11.182,2.644 -14.447,-10.857l-5.405,-1.913c-3.494,-1.889 -8.361,0.69 -11.854,-1.199c-0.745,-0.403 -0.17,-0.766 -2.297,-10.335l-5.372,-1.909c-0.978,-0.047 -12.222,-0.593 -12.222,-0.593c-1.356,-1.383 0.728,-4.384 -0.616,-5.778c-1.327,-1.375 -4.336,0.602 -5.684,-0.752c-1.382,-1.389 0.486,-4.382 -0.85,-5.815c-2.312,-2.48 -3.192,1.223 -5.508,-1.004c-2.44,-2.348 1.056,-3.279 -1.199,-5.448c-2.245,-2.166 -4.49,-4.331 -6.736,-6.497c-2.213,-2.275 -4.425,-4.55 -6.638,-6.825c-3.746,-1.778 -8.679,1.18 -12.424,-0.599c-1.704,-0.809 0.692,-4.313 -0.67,-5.618c-1.423,-1.363 -4.487,0.748 -5.876,-0.65c-1.394,-1.402 0.734,-4.467 -0.631,-5.897c-1.304,-1.366 -4.814,1.046 -5.627,-0.658c-0.599,-1.255 -0.227,-1.267 -3.063,-17.111c-11.712,-4.26 -9.302,-7.047 -10.878,-8.682c-2.113,-2.255 -4.226,-4.51 -6.338,-6.766c-1.359,-1.423 -4.485,0.582 -5.844,-0.841c-1.355,-1.42 0.857,-4.499 -0.556,-5.862c-1.439,-1.388 -5.046,1.323 -5.981,-0.444c-0.657,-1.242 -0.21,-1.284 -2.841,-17.339c-21.86,-28.758 -19.643,-29.55 -38.003,-60.008c-26.285,-43.604 -36.031,-125.382 -37.372,-136.635c-0.084,-0.703 -0.177,-0.631 -2.392,-8.516l-468.573,-768.397l578.778,1013.489c2.836,15.843 2.464,15.856 3.063,17.111c0.813,1.704 4.323,-0.708 5.627,0.658c1.365,1.43 -0.762,4.495 0.631,5.897c1.389,1.398 4.453,-0.713 5.876,0.65c1.362,1.304 -1.034,4.809 0.67,5.618c3.746,1.778 8.679,-1.18 12.424,0.599l-1.762,-4.281c-3.468,-3.706 -24.394,-24.164 -26.529,-26.251l-578.778,-1013.489Z" style="fill:#004d85;fill-opacity:1;"/><path d="M1399.347,61.894c-6.178,95.544 1.076,95.035 1.076,190.904c-0,204.509 -3.579,208.264 17.646,230.069c16.135,16.576 180.928,185.875 204.994,203.935l1.501,5.459c5.927,7.493 15.229,14.519 16.688,15.621c2.948,2.227 3.158,0.515 6.53,1.066l1.013,3.746c14.595,18.892 16.608,16.895 210.535,211.49c-1.486,0.69 -2.817,-3.068 -4.303,-2.378c-3.819,1.774 -5.655,6.388 -9.206,8.652c-2.697,1.719 -3.102,1.457 -256.954,1.457c-179.54,0 -180.872,1.106 -187.543,-5.051c-3.387,-3.126 -0.032,-213.163 -2.103,-219.732c-3.992,-12.662 -3.091,-12.631 -3.091,-138.192c0,-64.738 3.122,-65.705 -7.169,-85.434c0.549,-3.34 6.168,-4.277 6.716,-7.618c1.851,-11.271 -7.105,-4.146 -142.713,-4.146c-58.812,-0 -58.632,-0.482 -78.778,0.864l-6.878,-0.317c-1.336,-73.906 -0.872,-73.405 -0.872,-147.044c-0,-69.918 5.544,-74.997 -12.626,-83.922c-36.329,-0.096 -35.818,-0.103 -72.091,-0.103l-65.863,0c-58.841,-0 -59.849,-3.5 -76.272,6.449l-9.351,-10.169l0.647,-4.463c2.234,-11.611 1.704,-11.804 2.412,-12.54c1.63,-1.694 5.63,1.336 7.031,-0.551c1.363,-1.836 -1.539,-4.368 -1.685,-6.65c-0,-0.006 -0,-184.351 0,-184.411c0.247,-20.2 9.617,-12.398 11.353,-13.67l434.698,0l6.586,-0.006l9.145,0.479c-0.379,23.387 -0.768,22.839 -1.075,46.203Z" style="fill:#008ac5;fill-opacity:0.99;"/><path d="M1864.588,9.549c2.538,22.068 1.245,22.044 1.436,440.839c0.001,2.1 0.006,13.807 -0.259,26.255c-7.3,-4.362 -11.541,-6.896 -105.753,-10.796c-10.294,-4.67 -8.761,-6.942 -19.648,-8.914c-4.448,-0.805 -3.695,-1.718 -7.53,-3.502l-18.651,-3.575c-18.978,-8.77 -20.549,-4.009 -39.053,-14.065c-40.795,-22.17 -42.14,-18.537 -45.354,-20.91c-22.836,-16.856 -25.41,-12.675 -46.157,-32.343c-8.597,-8.315 -7.73,-9.292 -19.295,-13.187c-1.632,-1.546 -11.954,-11.32 -20.126,-19.612c-8.836,-15.413 -17.023,-19.592 -28.265,-30.666c-4.939,-5.319 -4.336,-5.33 -10.809,-8.724c-0.511,-0.538 -6.381,-6.721 -6.381,-6.721c-1.193,-1.51 0.32,-4.198 -0.873,-5.709c-2.965,-3.742 -2.679,-3.449 -5.716,-7.215c-1.851,-2.296 -0.556,-2.754 -2.452,-4.698c-3.54,-3.629 -2.935,-3.46 -5.97,-7.04c-4.475,-6.03 -4.278,-5.648 -10.744,-8.1c-0.845,-3.858 -1.69,-7.716 -2.535,-11.574c-5.169,-7.73 -4.957,-7.437 -10.709,-14.549c-1.36,-4.488 -3.719,-3.286 -26.407,-52.329c-1.485,-9.342 -1.076,-9.135 -4.801,-17.764c-9.584,-25.123 -9.769,-24.798 -16.636,-67.044c-0.707,-6.397 -1.414,-12.793 -2.121,-19.19c-2.652,-6.572 -5.303,-13.144 -7.955,-19.716l-2.477,-6.807c0.308,-23.364 0.696,-22.817 1.075,-46.203c3.078,-1.65 1.164,-7.929 4.242,-9.58c7.879,-4.225 8.618,0.359 111.753,0.359c332.922,0 333.068,-0.485 348.171,3.08Z" style="fill:#004884;fill-opacity:0.99;"/><path d="M467.968,462.612c18.043,9.384 19.109,7.215 146.123,7.215c6.417,0 71.876,0.007 72.449,-0.015c4.337,-0.169 8.872,-2.091 12.998,-0.747c3.997,1.302 5.65,6.82 9.646,8.122c-2.597,55.443 2.269,188.639 -2.416,223.729c-4.281,14.464 -3.79,14.593 -3.639,217.341c-2.116,2.899 1.763,3.201 -0.186,5.871c-0.592,0.812 -5.033,6.895 -9.816,7.833c-8.622,1.69 -17.725,-2.433 -26.347,-0.743c-41.069,-5.253 -40.921,-4.384 -45.884,-6.977c-7.898,-1.629 -55.475,-9.373 -60.304,-10.159c-6.441,-0.602 -12.882,-1.203 -19.324,-1.805c-1.005,-0.594 -7.481,-4.424 -13.489,-5.562c-6.612,-2.281 -13.224,-4.562 -19.836,-6.844l-5.838,-1.577c-5.791,-7.45 -6.226,-6.681 -14.407,-10.775c-4.398,-2.25 -8.796,-4.5 -13.193,-6.75l-6.446,-6.93c-6.502,-2.325 -13.004,-4.649 -19.506,-6.974l-5.676,-1.588c-3.135,-14.062 -7.42,-9.958 -8.285,-10.766c-4.321,-2.339 -1.634,-4.569 -6.267,-7.077c-0.875,-0.474 -0.917,-0.093 -12.378,-1.26c-3.307,-4.794 1.423,-5.95 -1.884,-10.744c-0.519,-0.752 -0.824,-0.191 -11.128,-2.576c-2.398,-1.839 -4.797,-3.677 -7.195,-5.516c-3.415,-7.23 -0.958,-8.087 -6.501,-13.762c-19.492,-19.958 -31.376,-30.96 -33.258,-32.818l-6.874,-0.057c-1.838,-2.398 -3.676,-4.796 -5.514,-7.194c-3.63,-17.914 -13.346,-12.937 -13.376,-12.957c-0.218,-3.276 -0.986,-2.596 -1.196,-5.761c-0.52,-7.824 -3.24,-6.211 -6.834,-13.102c-2.134,-2.246 -4.269,-4.492 -6.403,-6.737c-1.623,-3.151 1.536,-3.261 -0.177,-6.585c-0.508,-0.987 -0.867,-0.552 -11.708,-7.451c-0.882,-14.103 -1.278,-13.699 -7.934,-25.785l-6.627,-6.566c-0.956,-1.946 0.683,-4.553 -0.273,-6.499c-5.389,-10.969 -7.499,-9.315 -12.78,-20.032c-2.108,-4.488 -4.217,-8.976 -6.325,-13.465c-0.233,-2.059 -0.465,-4.119 -0.698,-6.178c-6.888,-19.932 -4.637,-20.278 -11.314,-40.332c-1.644,-11.372 -2.996,-10.537 -9.102,-19.865c-5.461,-56.929 -1.252,-56.654 -3.233,-113.52c105.338,-0.916 104.959,0.391 210.316,-0.437c10.418,-0.082 10.134,-4.733 12.042,-5.624Z" style="fill:#0097d6;fill-opacity:0.99;"/><path d="M410.598,933.884c9.748,1.124 9.498,0.932 19.133,-1.772c3.673,-0.132 3.576,-0.315 45.885,-2.22l-1.911,7.884c-7.35,38.558 2.051,395.939 -4.488,461.163c-16.634,0.229 -16.292,-0.628 -32.687,3.566c-190.115,-8.522 -422.841,8.797 -429.38,-9.873c-0.764,-2.182 -0.372,-4.661 -1.136,-6.843c0.848,-13.201 1.696,-26.401 2.544,-39.602c3.914,-24.581 3.776,-24.483 4.433,-26.714c0.834,-6.428 1.668,-12.855 2.502,-19.283c1.429,-4.57 2.857,-9.14 4.286,-13.71c1.105,-6.281 2.21,-12.563 3.316,-18.844l2.472,-1.285c1.263,-6.184 2.527,-12.367 3.79,-18.551l2.433,-1.408c1.462,-6.042 2.924,-12.084 4.385,-18.126c1.537,-10.657 5.094,-8.996 7.289,-19.625c4.641,-5.878 5.15,-5.392 6.52,-12.909c8.844,-12.328 10.096,-11.478 13.354,-26.114c7.575,-9.379 6.844,-9.327 12.37,-20.055l0.753,-6.075c9.187,-3.629 7.581,-5.322 12.361,-13.672c6.185,-6.945 5.863,-6.545 11.627,-14.135c2.702,-4.031 5.404,-8.062 8.107,-12.094c10.192,-9.939 9.43,-9.826 19.017,-20.085c2.096,-2.3 4.192,-4.599 6.288,-6.899c8.251,-9.176 18.239,-18.015 19.908,-19.492c10.138,-9.53 10.035,-9.026 20.012,-19.189c2.287,-2.14 4.573,-4.28 6.86,-6.42c10.327,-6.302 10.128,-5.574 19.227,-13.605c8.311,-7.078 77.81,-44.77 78.941,-45.864c5.351,-5.179 77.999,-26.175 84.871,-28.162c6.669,-1.739 13.339,-3.479 20.008,-5.218c8.969,-1.59 17.938,-3.18 26.907,-4.771Z" style="fill:#005286;fill-opacity:1;"/><path d="M1388.962,483.507c10.291,19.729 7.169,20.697 7.169,85.434c0,125.561 -0.902,125.53 3.091,138.192c2.071,6.569 -1.284,216.605 2.103,219.732c6.671,6.157 8.003,5.051 187.543,5.051c253.852,0 254.258,0.262 256.954,-1.457c3.551,-2.264 5.387,-6.878 9.206,-8.652c1.486,-0.69 2.817,3.068 4.303,2.378c13.241,15.605 6.635,18.823 8.294,475.007l-8.873,-0.039c-8.819,-12.478 -11.391,-13.257 -12.828,-13.693c-1.832,-0.555 -8.79,-2.664 -20.348,-12.596c-3.313,-15.356 -8.039,-11.144 -8.324,-11.427c-0.824,-0.824 2.66,-5.336 -11.573,-8.186c-2.85,-14.234 -7.361,-10.749 -8.186,-11.573c-2.195,-2.195 -24.15,-24.15 -26.345,-26.345c-0.824,-0.824 2.66,-5.336 -11.573,-8.186c-2.85,-14.234 -7.361,-10.749 -8.186,-11.573c-2.195,-2.195 -24.15,-24.15 -26.345,-26.345c-0.824,-0.824 2.66,-5.336 -11.573,-8.186c-2.147,-10.722 -2.921,-11.12 -13.173,-13.173c-2.85,-14.234 -7.361,-10.749 -8.186,-11.573c-0.824,-0.824 2.66,-5.336 -11.573,-8.186c-2.147,-10.722 -2.921,-11.12 -13.173,-13.173c-2.073,-10.355 -2.53,-11.05 -12.94,-13.395c-2.321,-12.516 -4.922,-11.02 -6.392,-13.358c-8.239,-11.897 -9.335,-10.368 -19.541,-19.989c-4.974,-5.669 -11.979,-22.074 -33.349,-25.947c-0.194,-0.859 -2.425,-10.737 -2.425,-10.737c-1.427,-1.409 -4.561,0.811 -5.988,-0.598c-2.195,-2.195 -4.391,-4.391 -6.586,-6.586c-0.824,-0.824 2.66,-5.336 -11.573,-8.186c-2.85,-14.234 -7.361,-10.749 -8.186,-11.573c-2.195,-2.195 -43.909,-43.909 -46.104,-46.104c-0.824,-0.824 2.66,-5.336 -11.573,-8.186c-2.85,-14.234 -7.361,-10.749 -8.186,-11.573c-2.195,-2.195 -30.736,-30.736 -32.932,-32.932c-0.824,-0.824 2.66,-5.336 -11.573,-8.186c-2.85,-14.234 -7.361,-10.749 -8.186,-11.573c-2.195,-2.195 -10.977,-10.977 -13.173,-13.173c-2.196,-2.195 -4.391,-4.391 -6.587,-6.586c-2.2,-2.192 -4.4,-4.384 -6.6,-6.576c-2.229,-2.168 -4.458,-4.336 -6.687,-6.504c-1.444,-3.011 0.713,-3.256 -0.609,-6.013c-5.37,-11.198 -9.932,-1.717 -11.014,-1.905c-13.874,-10.249 -15.933,-3.637 -223.451,-6.37c-5.057,-16.732 -5.126,-16.961 -4.343,-218.456c0.046,-11.938 2.532,-11.07 5.158,-22.548c14.151,0.895 15.657,0.99 177.234,0.794c25.74,-0.031 36.739,7.818 37.739,-17.791c1.875,-48.035 -0.282,-181.595 -0.536,-197.383Z" style="fill:#9c9d9c;fill-opacity:0.99;"/><path d="M5.981,469.93c3.476,-399.811 -6.177,-468.411 8.19,-469.265c33.708,-2.004 33.328,2.406 422.09,0.294c33.588,-0.182 34.292,-2.957 39.215,1.864c11.451,11.211 -33.019,47.232 -150.662,164.875c-276.548,276.548 -275.923,277.112 -290.565,289.104c-5.892,4.826 -4.786,5.176 -6.289,12.842c-14.305,-1.241 -14.209,-1.32 -15.449,-1.34c-3.683,-0.058 -2.931,1.684 -6.53,1.627Z" style="fill:#9d9d9c;fill-opacity:0.97;"/><path d="M469.217,1398.94c4.531,0.535 9.062,1.07 13.594,1.604c-12.871,17.204 -0.66,126.761 -7.39,307.86l-0.672,13.211c-3.397,29.652 -4.281,29.342 0.202,59.146c-1.21,40.831 -6.567,41.005 2.474,75.608c-0.567,3.333 -1.135,6.665 -1.702,9.998c-28.136,4.05 -376.98,0.673 -434.642,1.742c-36.235,0.672 -37.141,2.797 -40.049,-1.237c-6.016,-8.347 2.105,-9.336 375.575,-382.806c5.271,-5.271 57.512,-57.512 66.472,-65.287c7.416,-5.999 7.028,-5.614 13.694,-12.275l12.444,-7.563Z" style="fill:#9c9c9b;fill-opacity:0.96;"/><path d="M5.981,469.93c3.598,0.057 2.847,-1.686 6.53,-1.627c1.24,0.02 1.144,0.099 15.449,1.34c61.124,-3.155 137.722,-2.075 217.651,-0.97c1.982,56.866 -2.227,56.591 3.233,113.52c-3.944,60.083 3.671,347.652 -4.187,354.936c-3.65,3.383 -4.506,1.842 -210.167,2.696c-20.273,0.084 -28.556,4.832 -28.52,-15.089c0.066,-36.384 0.529,-291.602 0.011,-454.806Z" style="fill:#fab800;fill-opacity:0.98;"/><path d="M931.095,1629.584l4.225,-1.24c37.15,-0.255 305.999,-2.101 464.384,0.378c0.35,18.53 4.128,218.668 -0.969,231.662c-4.587,11.692 -10.323,5.294 -448.743,6.102c-6.656,-2.181 -13.312,-4.363 -19.968,-6.544c-1.195,-227.106 0.747,-227.022 1.07,-230.359Z" style="fill:#f9b801;fill-opacity:0.99;"/><path d="M703.129,918.256c1.257,4.13 2.513,8.259 3.77,12.389c-11.372,59.086 3.018,417.262 -7.057,469.299c-199.869,1.184 -199.669,0.455 -217.03,0.6c-4.531,-0.535 -9.062,-1.07 -13.594,-1.604c6.539,-65.224 -2.863,-422.605 4.488,-461.163l1.911,-7.884c66.319,-0.359 65.929,0.427 131.643,6.58c30.456,1.199 30.298,2.023 59.521,-5.255c8.622,-1.69 17.725,2.433 26.347,0.743c4.784,-0.938 9.224,-7.021 9.816,-7.833c1.949,-2.67 -1.93,-2.972 0.186,-5.871Z" style="fill:#0081b8;fill-opacity:1;"/><path d="M1864.588,9.549c-15.103,-3.565 -15.248,-3.08 -348.171,-3.08c-103.134,0 -103.874,-4.583 -111.753,-0.359c-3.078,1.65 -1.164,7.929 -4.242,9.58l-9.145,-0.479l-6.586,0.006l-434.698,0c-1.736,1.272 -11.106,-6.53 -11.353,13.67c-0.001,0.06 -0.001,184.405 -0,184.411c0.146,2.282 3.048,4.814 1.685,6.65c-1.401,1.888 -5.402,-1.143 -7.031,0.551c-0.708,0.736 -0.179,0.929 -2.412,12.54l-0.647,4.463c-200.44,0.995 -200.43,-3.069 -217.655,-0.52c-7.097,1.05 -6.685,-0.168 -14.106,-0.355l-0.433,-4.804c1.963,-187.889 -5.366,-230.147 7.71,-231.09c12.603,-0.909 988.994,3.993 1139.965,3.157c10.603,-0.059 11.135,-1.28 18.873,5.659Z" style="fill:#0095d5;fill-opacity:0.96;"/><path d="M1760.012,465.848c94.212,3.899 98.452,6.434 105.753,10.796c1.916,17.302 1.789,17.262 1.71,217.587c-0.005,13.07 -1.741,15.15 -15.008,15.193c-129.56,0.418 -175.813,-0.293 -191.099,-0.528l-13.585,0.052c-3.372,-0.55 -3.582,1.161 -6.53,-1.066c-1.459,-1.102 -10.761,-8.128 -16.688,-15.621c0.863,-5.992 1.727,-11.983 2.59,-17.975c-1.495,-200.024 -0.955,-203.885 7.244,-205.89c2.214,-0.542 82.304,0.27 125.614,-2.549Z" style="fill:#fab800;fill-opacity:0.98;"/><path d="M1397.222,1159.884c174.36,0.427 174.154,-0.84 211.519,2.7c15.016,3.945 14.629,3.539 19.752,5.613c9.489,27.754 8.038,44.811 7.604,217.255l1.063,5.608c-3.648,0.938 -5.127,6.18 -8.775,7.119c-1.474,0.379 -212.96,0.246 -217.284,0.078c-17.583,-0.685 -12.913,-47.692 -13.113,-58.72l-0.246,-6.575c3.878,-16.299 3.94,-15.758 4.223,-33.054c-7.481,-52.884 -5.096,-128.821 -4.744,-140.024Z" style="fill:#0096d6;fill-opacity:0.99;"/><path d="M706.768,700.915c18.904,-3.613 206.93,-5.228 227.69,0.981c5.909,23.567 4.671,222.28 0.177,227.708c-5.718,6.907 -208.25,6.977 -227.736,1.04c-1.257,-4.13 -2.513,-8.259 -3.77,-12.389c-0.151,-202.748 -0.642,-202.877 3.639,-217.341Z" style="fill:#fab800;fill-opacity:0.99;"/><path d="M1153.811,241.326c18.17,8.926 12.626,14.004 12.626,83.922c-0,73.638 -0.464,73.138 0.872,147.044c-4.423,-0.963 -8.845,-1.925 -13.268,-2.888c11.696,-20.641 5.478,-21.658 5.511,-45.361c0.245,-175.185 0.027,-176.261 -5.742,-182.717Z" style="fill:#0076a8;fill-opacity:0.21;"/><path d="M6.015,1385.79c0.764,2.182 0.372,4.661 1.136,6.843c6.539,18.67 239.264,1.351 429.38,9.873c-34.164,2.567 -34.156,1.821 -428.24,2.499c-8.944,0.015 -5.557,-4.176 -5.983,-12.87l3.708,-6.345Z" style="fill:#004673;fill-opacity:0.37;"/><path d="M923.546,471.066c6.774,2.865 13.682,-0.908 11.198,12.073c-0.601,3.138 -0.074,194.016 -0.028,210.887c-14.404,-179.403 11.851,-184.074 -11.17,-222.96Z" style="fill:#00446f;fill-opacity:0.37;"/><path d="M950.164,1395.99c16.495,-3.287 212.775,-5.76 269.869,0.126c-89.956,-0.042 -179.912,-0.084 -269.869,-0.126Z" style="fill:#00416b;fill-opacity:0.4;"/><path d="M476.183,234.203c210.545,0.013 210.529,-0.867 221.858,-2.379l0.433,4.804c-200.543,2.251 -204.904,1.314 -222.291,-2.425Z" style="fill:#00416b;fill-opacity:0.4;"/><path d="M1647.969,1393.439c117.864,-0.079 117.263,-0.106 171.448,0.34c-88.547,5.203 -88.288,2.172 -177.297,2.442l5.849,-2.782Z" style="fill:#00416b;fill-opacity:0.4;"/><path d="M620.896,924.24c4.963,2.593 4.815,1.725 45.884,6.977c-29.223,7.277 -29.065,6.453 -59.521,5.255c0.765,-0.197 9.561,-2.458 9.561,-2.458c2.581,-2.408 1.495,-7.366 4.076,-9.774Z" style="fill:#0089c4;fill-opacity:0.86;"/><path d="M475.421,1708.404c7.956,15.424 6.868,15.568 7.544,33.05c-2.46,10.923 -4.921,21.847 -7.381,32.77c-0.122,-7.063 0.649,-6.439 0.533,-13.126c-0.054,-3.16 -0.101,-2.925 -1.369,-39.483l0.672,-13.211Z" style="fill:#486f8f;fill-opacity:0.39;"/><path d="M621.974,1505.919c-18.775,20.707 -18.48,20.432 -38.854,39.255c1.874,-3.641 -1.087,-8.618 0.787,-12.259c0.886,-1.721 4.439,0.881 5.785,-0.511c1.395,-1.442 -0.912,-4.585 0.513,-5.997c1.44,-1.427 4.625,0.916 6.059,-0.517c1.434,-1.432 -0.908,-4.625 0.525,-6.058c1.434,-1.433 4.627,0.91 6.061,-0.524c1.433,-1.433 -0.913,-4.624 0.52,-6.056c1.428,-1.426 4.577,0.905 6.036,-0.491c2.432,-2.327 -2.637,-4.059 0.51,-5.772c5.666,-3.085 6.421,1.999 12.057,-1.07Z" style="fill:#00457e;fill-opacity:0.24;"/><path d="M932.115,1550.286c2.89,39.348 2.523,38.895 3.205,78.058l-4.225,1.24c0.461,-52.934 0.885,-72.955 1.02,-79.298Z" style="fill:#07486f;fill-opacity:0.38;"/><path d="M474.749,1721.614c1.268,36.558 1.315,36.323 1.369,39.483c0.115,6.688 -0.655,6.063 -0.533,13.126l-0.634,6.537c-4.483,-29.804 -3.599,-29.494 -0.202,-59.146Z" style="fill:#718495;fill-opacity:0.61;"/><path d="M1595.144,1142.251c21.37,3.873 28.376,20.278 33.349,25.947c-5.123,-2.074 -4.736,-1.668 -19.752,-5.613c-1.875,-4.261 4.978,-7.583 -6.306,-14.335c-4.088,-2.446 -3.269,-2.69 -7.291,-5.999Z" style="fill:#658e9f;fill-opacity:0.36;"/><path d="M1548.893,1741.835c16.989,16.111 18,14.1 34.574,30.634c-3.557,-1.828 -8.393,0.76 -11.95,-1.069c-2.318,-1.191 0.877,-3.975 -20.777,-25.088l-1.847,-4.477Z" style="fill:#004977;fill-opacity:0.29;"/><path d="M257.946,602.058c6.677,20.054 4.426,20.4 11.314,40.332c-0.579,-0.811 -1.73,0.45 -9.159,-8.437c-3.404,-4.072 -1.758,-4.402 -2.155,-31.895Z" style="fill:#0082b9;fill-opacity:0.26;"/><path d="M1485.762,1673.979c13.353,13.256 12.071,13.765 23.909,27.953c-11.778,-3.426 -9.159,-6.496 -11.194,-8.377c-1.429,-1.322 -4.36,0.442 -5.77,-0.9c-1.351,-1.286 0.374,-4.215 -0.966,-5.512c-2.499,-2.42 -3.273,1.448 -5.563,-0.81c-0.704,-0.694 -0.03,-0.896 -0.416,-12.355Z" style="fill:#004c7d;fill-opacity:0.26;"/><path d="M128.55,1077.849l-0.974,5.653c-9.587,10.259 -8.826,10.147 -19.017,20.085c1.872,-3.523 -0.655,-8.384 1.217,-11.908c0.874,-1.645 4.216,0.527 5.531,-0.792c1.337,-1.341 -0.491,-4.29 0.861,-5.616c5.376,-5.276 7.001,-2.107 12.383,-7.423Z" style="fill:#004d7f;fill-opacity:0.25;"/><path d="M1096.626,1291.546c20.218,7.758 18.68,12.216 26.079,19.39c-0.978,-0.047 -12.222,-0.593 -12.222,-0.593c-1.356,-1.383 0.728,-4.384 -0.616,-5.778c-1.327,-1.375 -4.336,0.602 -5.684,-0.752c-1.382,-1.389 0.486,-4.382 -0.85,-5.815c-2.312,-2.48 -3.192,1.223 -5.508,-1.004c-2.44,-2.348 1.056,-3.279 -1.199,-5.448Z" style="fill:#00437c;fill-opacity:0.26;"/><path d="M63.072,1163.037l0.268,6.581c-3.258,14.636 -4.511,13.786 -13.354,26.114l0.216,-6.399c6.526,-13.413 6.33,-13.012 12.87,-26.296Z" style="fill:#004673;fill-opacity:0.23;"/><path d="M173.784,1037.923c-9.977,10.164 -9.874,9.659 -20.012,19.189l-5.6,1.041c5.375,-5.356 2.338,-7.063 7.517,-12.322c1.328,-1.349 4.263,0.448 5.611,-0.882c2.352,-2.32 -2.109,-3.816 0.826,-5.467c5.381,-3.029 6.217,1.504 11.658,-1.559Z" style="fill:#004d7e;fill-opacity:0.25;"/><path d="M8.56,1346.188c-0.848,13.201 -1.696,26.401 -2.544,39.602l-3.708,6.345c1.333,-23.309 -1.302,-23.462 6.253,-45.947Z" style="fill:#004d7f;fill-opacity:0.36;"/><path d="M276.283,662.032c5.281,10.717 7.391,9.062 12.78,20.032c0.956,1.946 -0.683,4.553 0.273,6.499l0.377,6.338c-2.656,-3.855 -6.52,-5.629 -13.186,-26.378l-0.245,-6.49Z" style="fill:#0076a9;fill-opacity:0.18;"/><path d="M1428.802,1564.26c6.996,16.3 9.966,28.658 10.582,31.222c-6.134,-9.483 -15.341,-6.894 -10.582,-31.222Z" style="fill:#004a7a;fill-opacity:0.26;"/><path d="M477.425,1856.369c12.658,-0.74 25.316,-1.48 37.974,-2.22c-30.963,5.977 -31.207,3.258 -33.391,4.845c-0.627,0.456 -0.466,0.546 -6.285,7.374c0.567,-3.333 1.135,-6.665 1.702,-9.998Z" style="fill:#0d4576;fill-opacity:0.32;"/><path d="M1479.237,277.382l4.494,1.586c3.036,3.579 2.431,3.411 5.97,7.04c1.896,1.943 0.601,2.402 2.452,4.698c3.036,3.766 2.751,3.473 5.716,7.215c-3.326,-1.991 -8.215,0.564 -11.541,-1.427c-1.399,-0.838 1.47,-1.881 -7.092,-19.111Z" style="fill:#004177;fill-opacity:0.23;"/><path d="M1022.523,1207.758c1.104,1.536 8.432,11.732 14.204,18.896l1.018,5.59c-1.359,-1.423 -4.485,0.582 -5.844,-0.841c-1.355,-1.42 0.857,-4.499 -0.556,-5.862c-1.439,-1.388 -5.046,1.323 -5.981,-0.444c-0.657,-1.242 -0.21,-1.284 -2.841,-17.339Z" style="fill:#00447d;fill-opacity:0.3;"/><path d="M1401.966,1299.908c-0.283,17.296 -0.346,16.755 -4.223,33.054c0.041,-17.243 -0.824,-16.991 4.223,-33.054Z" style="fill:#0086c5;fill-opacity:0.78;"/><path d="M295.964,695.129c6.656,12.086 7.052,11.682 7.934,25.785c-5.115,-5.849 -4.922,-5.5 -7.692,-12.763l-0.242,-13.022Z" style="fill:#007eb4;fill-opacity:0.18;"/><path d="M1564.324,369.351c11.565,3.895 10.697,4.872 19.295,13.187c-3.536,-1.902 -8.469,0.927 -12.005,-0.975c-1.714,-0.922 0.742,-4.404 -0.607,-5.808c-2.218,-2.307 -3.266,1.58 -5.687,-0.74c-2.343,-2.245 1.366,-3.4 -0.996,-5.664Z" style="fill:#00457e;fill-opacity:0.26;"/><path d="M654.649,1479.385c-10.396,9.684 -10.335,9.177 -21.141,17.827c6.267,-18.374 19.882,-17.645 21.141,-17.827Z" style="fill:#004279;fill-opacity:0.31;"/><path d="M570.043,1558.718c-4.007,11.307 -4.949,10.565 -13.198,19.291c1.917,-3.526 -0.953,-8.475 0.964,-12.001c0.938,-1.726 4.446,0.792 5.867,-0.564c2.349,-2.241 -1.59,-3.282 0.708,-5.71c2.25,-2.377 3.427,1.342 5.659,-1.016Z" style="fill:#00447e;fill-opacity:0.26;"/><path d="M148.172,1058.153l5.6,-1.041c-1.669,1.477 -11.657,10.316 -19.908,19.492l1.22,-5.4c1.282,-1.303 -0.135,-4.059 1.147,-5.363c5.332,-5.422 6.757,-2.619 11.941,-7.688Z" style="fill:#004a79;fill-opacity:0.33;"/><path d="M75.71,1149.563c-5.526,10.729 -4.794,10.677 -12.37,20.055l-0.268,-6.581c1.319,-1.301 -0.469,-4.191 0.85,-5.491c5.226,-5.154 6.919,-2.381 11.788,-7.983Z" style="fill:#004a7a;fill-opacity:0.28;"/><path d="M1812.671,1860.856c13.213,1.76 26.425,3.521 39.638,5.281c-20.14,-1.466 -20.065,0.038 -39.638,-5.281Z" style="fill:#004775;fill-opacity:0.37;"/><path d="M1401.824,68.701c2.652,6.572 5.303,13.144 7.955,19.716l-2.375,5.555c-1.768,-13.204 -1.745,-12.873 -5.58,-25.271Z" style="fill:#004c88;fill-opacity:0.79;"/><path d="M1583.467,1772.469c10.206,6.183 10.074,5.51 19.474,13.486c-3.392,-1.878 -8.103,0.103 -11.496,-1.774c-1.56,-0.864 0.167,-4.023 -1.151,-5.225c-2.628,-2.398 -3.498,1.077 -5.985,-1.286c-2.186,-2.077 1.575,-2.904 -0.842,-5.2Z" style="fill:#004978;fill-opacity:0.3;"/><path d="M1602.94,1785.954c10.603,6.013 10.532,5.383 19.763,13.023c-3.412,-1.839 -8.099,0.201 -11.511,-1.638c-1.568,-0.845 0.113,-3.997 -1.192,-5.208c-2.487,-2.308 -3.322,0.881 -5.918,-1.39c-2.097,-1.835 1.15,-2.782 -1.142,-4.787Z" style="fill:#004876;fill-opacity:0.3;"/><path d="M1452.638,1621.65c4.706,5.816 5.204,5.099 7.124,12.84l-0.5,6.733c-2.208,-6.524 -4.416,-13.049 -6.625,-19.573Z" style="fill:#004978;fill-opacity:0.24;"/><path d="M1459.762,1634.49c5.872,6.917 5.695,6.673 10.879,14.402c-12.164,-2.46 -9.497,-5.896 -11.379,-7.668l0.5,-6.733Z" style="fill:#004f81;fill-opacity:0.25;"/><path d="M199.871,1017.898c-9.1,8.03 -8.9,7.303 -19.227,13.605c0.548,-0.506 6.845,-6.327 6.845,-6.327c2.085,-2.125 -1.594,-3.462 1.213,-5.112c5.053,-2.97 5.666,1.068 11.169,-2.166Z" style="fill:#004977;fill-opacity:0.31;"/><path d="M50.202,1189.333l-0.216,6.399c-1.37,7.517 -1.879,7.031 -6.52,12.909c2.245,-6.436 4.491,-12.872 6.736,-19.308Z" style="fill:#004876;fill-opacity:0.25;"/><path d="M481.562,886.701l6.137,0.818c8.18,4.094 8.616,3.324 14.407,10.775c-10.111,-6.893 -10.736,-4.931 -20.544,-11.593Z" style="fill:#006b98;fill-opacity:0.2;"/><path d="M456.773,1406.502c-6.667,6.661 -6.279,6.276 -13.694,12.275c0.479,-1.174 5.994,-14.675 5.994,-14.675c2.244,-1.481 5.457,3.88 7.701,2.4Z" style="fill:#5b717e;fill-opacity:0.2;"/><path d="M1472.34,1654.466c6.218,6.986 6.001,6.739 11.649,14.034c-17.554,-3.401 -11.303,-13.369 -11.649,-14.034Z" style="fill:#004e80;fill-opacity:0.27;"/><path d="M289.337,688.563l6.627,6.566l0.242,13.022c-4.323,-6.317 -4.166,-5.807 -6.493,-13.25l-0.377,-6.338Z" style="fill:#0074a6;fill-opacity:0.15;"/><path d="M1147.634,1326.292c7.769,5.287 7.455,5.063 14.447,10.857c-7.419,-0.472 -11.182,2.644 -14.447,-10.857Z" style="fill:#00447e;fill-opacity:0.27;"/><path d="M322.186,741.688c3.595,6.891 6.314,5.278 6.834,13.102c0.21,3.165 0.978,2.485 1.196,5.761c-5.016,-5.835 -4.845,-5.475 -7.49,-12.833l-0.54,-6.03Z" style="fill:#0079ac;fill-opacity:0.13;"/><path d="M1459.744,244.743c5.752,7.112 5.54,6.819 10.709,14.549c-14.547,-3.453 -10.4,-7.961 -10.709,-14.549Z" style="fill:#00447e;fill-opacity:0.28;"/><path d="M269.958,648.568c2.108,4.488 4.217,8.976 6.325,13.465l0.245,6.49c-6.143,-9.128 -5.189,-9.2 -6.57,-19.955Z" style="fill:#0073a4;fill-opacity:0.15;"/><path d="M1128.077,1312.845c7.405,5.636 6.92,5.224 14.152,11.535c-3.494,-1.889 -8.361,0.69 -11.854,-1.199c-0.745,-0.403 -0.17,-0.766 -2.297,-10.335Z" style="fill:#00447e;fill-opacity:0.29;"/><path d="M930.024,1859.943c6.656,2.181 13.312,4.363 19.968,6.544c-11.094,-1.003 -11.797,1.303 -19.968,-6.544Z" style="fill:#93844d;fill-opacity:0.31;"/><path d="M455.543,872.541c4.172,0.433 8.344,0.865 12.516,1.298l6.446,6.93l-6.228,-0.529c-7.373,-2.843 -7.021,-2.744 -12.735,-7.699Z" style="fill:#0074a6;fill-opacity:0.14;"/><path d="M100.452,1115.681c-5.765,7.59 -5.442,7.19 -11.627,14.135c1.873,-3.424 -0.413,-8.192 1.459,-11.616c0.402,-0.735 0.753,-0.187 10.168,-2.519Z" style="fill:#004d7f;fill-opacity:0.29;"/><path d="M303.898,720.914c10.841,6.899 11.2,6.464 11.708,7.451c1.713,3.325 -1.447,3.434 0.177,6.585l-4.673,-1.344c-7.143,-11.695 -6.471,-11.789 -7.211,-12.692Z" style="fill:#007baf;fill-opacity:0.2;"/><path d="M415.947,846.174c11.461,1.167 11.503,0.786 12.378,1.26c4.633,2.508 1.946,4.738 6.267,7.077l-5.856,-0.802c-7.35,-2.665 -7.005,-2.57 -12.789,-7.535Z" style="fill:#0076a8;fill-opacity:0.14;"/><path d="M311.11,733.606l4.673,1.344c2.134,2.246 4.269,4.492 6.403,6.737l0.54,6.03c-5.614,-7.066 -10.669,-12.999 -11.617,-14.112Z" style="fill:#0071a1;fill-opacity:0.15;"/><path d="M88.824,1129.817c-4.78,8.35 -3.174,10.042 -12.361,13.672c1.268,-1.375 -0.473,-4.18 0.794,-5.555c4.891,-5.306 6.532,-2.443 11.567,-8.117Z" style="fill:#004876;fill-opacity:0.27;"/><path d="M448.553,866.865c6.502,2.325 13.004,4.649 19.506,6.974c-4.172,-0.433 -8.344,-0.865 -12.516,-1.298c-2.33,-1.892 -4.66,-3.784 -6.99,-5.676Z" style="fill:#0074a6;fill-opacity:0.22;"/><path d="M330.217,760.551c0.03,0.02 9.746,-4.956 13.376,12.957c-1.06,-1.047 -6.607,-6.527 -13.376,-12.957Z" style="fill:#0072a2;fill-opacity:0.15;"/><path d="M468.278,880.24l6.228,0.529c4.398,2.25 8.796,4.5 13.193,6.75l-6.137,-0.818c-7.299,-2.301 -6.925,-2.237 -13.284,-6.46Z" style="fill:#006b99;fill-opacity:0.17;"/><path d="M428.736,853.71l5.856,0.802c0.865,0.808 5.15,-3.296 8.285,10.766c-1.117,-0.942 -7.069,-5.962 -14.141,-11.568Z" style="fill:#006d9c;fill-opacity:0.16;"/><path d="M402.935,832.855c10.303,2.385 10.609,1.824 11.128,2.576c3.307,4.794 -1.423,5.95 1.884,10.744c-1.031,-1.075 -6.459,-6.737 -13.011,-13.32Z" style="fill:#006f9e;fill-opacity:0.16;"/><path d="M1760.14,1853.162c13.908,1.646 13.521,1.38 26.39,6.033c-8.797,-2.011 -17.593,-4.022 -26.39,-6.033Z" style="fill:#004b7b;fill-opacity:0.35;"/><path d="M1502.708,1050.281c14.234,2.85 10.749,7.361 11.573,8.186l1.599,4.987c-4.391,-4.391 -8.782,-8.782 -13.173,-13.173Z" style="fill:#727271;fill-opacity:0.15;"/><path d="M1746.402,1293.976l4.987,1.599c0.824,0.824 5.336,-2.66 8.186,11.573c-4.391,-4.391 -8.782,-8.782 -13.173,-13.173Z" style="fill:#727271;fill-opacity:0.15;"/><path d="M1792.506,1340.08l4.987,1.599c0.824,0.824 5.336,-2.66 8.186,11.573c-4.391,-4.391 -8.782,-8.782 -13.173,-13.173Z" style="fill:#727271;fill-opacity:0.15;"/><path d="M1450.017,997.591c14.234,2.85 10.749,7.361 11.573,8.186l1.599,4.987c-4.391,-4.391 -8.782,-8.782 -13.173,-13.173Z" style="fill:#727271;fill-opacity:0.15;"/><path d="M1568.571,1116.145c14.234,2.85 10.749,7.361 11.573,8.186l1.599,4.987c-4.391,-4.391 -8.782,-8.782 -13.173,-13.173Z" style="fill:#727271;fill-opacity:0.15;"/><path d="M1667.366,1214.94c10.252,2.053 11.026,2.451 13.173,13.173c-4.391,-4.391 -8.782,-8.782 -13.173,-13.173Z" style="fill:#727271;fill-opacity:0.15;"/><path d="M1680.538,1228.112c14.234,2.85 10.749,7.361 11.573,8.186l1.599,4.987c-4.391,-4.391 -8.782,-8.782 -13.173,-13.173Z" style="fill:#727271;fill-opacity:0.15;"/><path d="M1700.297,1247.871c10.252,2.053 11.026,2.451 13.173,13.173c-4.391,-4.391 -8.782,-8.782 -13.173,-13.173Z" style="fill:#727271;fill-opacity:0.15;"/><path d="M1812.265,1359.839l4.987,1.599c0.285,0.283 5.011,-3.929 8.324,11.427c-6.856,-6.582 -6.509,-6.241 -13.311,-13.026Z" style="fill:#727272;fill-opacity:0.15;"/><path d="M1654.426,1201.544c10.41,2.345 10.866,3.04 12.94,13.395c-6.762,-6.791 -6.458,-6.478 -12.94,-13.395Z" style="fill:#737372;fill-opacity:0.15;"/><path d="M507.944,899.87c6.612,2.281 13.224,4.562 19.836,6.844c-10.695,-2.346 -10.89,-1.013 -19.836,-6.844Z" style="fill:#006996;fill-opacity:0.18;"/><path d="M1399.622,1446.676c9.58,0.055 8.785,2.507 9.945,11.896c-1.687,-2.086 -2.256,-0.97 -3.915,-3.021c-0.54,-0.667 -0.447,-0.657 -6.03,-8.875Z" style="fill:#005286;fill-opacity:0.87;"/><path d="M23.096,1267.637c-1.105,6.281 -2.21,12.563 -3.316,18.844c-1.965,-9.843 -0.803,-9.553 3.316,-18.844Z" style="fill:#005184;fill-opacity:0.33;"/><path d="M349.107,780.702l6.874,0.057c0.122,4.319 0.244,8.639 0.367,12.958c-4.968,-6.055 -4.7,-5.74 -7.241,-13.015Z" style="fill:#007eb4;fill-opacity:0.08;"/><path d="M1428.537,174.65c3.725,8.629 3.316,8.422 4.801,17.764c-4.047,-8.592 -6.009,-7.899 -4.801,-17.764Z" style="fill:#00447c;fill-opacity:0.33;"/><path d="M1733.809,1846.542c13.804,2.306 13.394,1.995 26.331,6.621c-8.777,-2.207 -17.554,-4.414 -26.331,-6.621Z" style="fill:#004572;fill-opacity:0.37;"/><path d="M476.183,234.203c-2.099,7.15 -1.397,7.147 -6.339,12.105c2.113,-4.035 4.226,-8.07 6.339,-12.105Z" style="fill:#005083;fill-opacity:0.38;"/><path d="M805.031,1714.904l-1.773,4.861c-2.176,2.172 -4.352,4.344 -6.528,6.516l-4.948,1.706c1.087,-1.018 6.796,-6.366 13.248,-13.083Z" style="fill:#004076;fill-opacity:0.36;"/><path d="M1042.533,1233.877c0.967,1.129 6.048,7.057 12.428,13.815c-11.712,-4.26 -9.302,-7.047 -10.878,-8.682l-1.55,-5.133Z" style="fill:#003f74;fill-opacity:0.36;"/><path d="M541.268,912.276c6.441,0.602 12.882,1.203 19.324,1.805c-10.238,1.861 -10.101,2.636 -19.324,-1.805Z" style="fill:#0082b9;fill-opacity:0.26;"/><path d="M1627.154,674.287c-0.863,5.992 -1.727,11.983 -2.59,17.975l-1.501,-5.459c1.364,-4.172 2.728,-8.344 4.091,-12.516Z" style="fill:#89852d;fill-opacity:0.23;"/><path d="M135.084,1071.204l-1.22,5.4c-2.096,2.3 -4.192,4.599 -6.288,6.899l0.974,-5.653c2.178,-2.215 4.356,-4.43 6.534,-6.645Z" style="fill:#004e80;fill-opacity:0.26;"/><path d="M15.494,1300.191c-0.834,6.428 -1.668,12.855 -2.502,19.283c-1.663,-10.318 -0.982,-9.931 2.502,-19.283Z" style="fill:#005082;fill-opacity:0.36;"/><path d="M1472.988,270.867c6.465,2.453 6.268,2.07 10.744,8.1l-4.494,-1.586c-2.083,-2.172 -4.166,-4.343 -6.249,-6.515Z" style="fill:#00457f;fill-opacity:0.24;"/><path d="M29.358,1247.801c-1.263,6.184 -2.527,12.367 -3.79,18.551c-1.224,-9.759 -0.017,-9.51 3.79,-18.551Z" style="fill:#004f81;fill-opacity:0.35;"/><path d="M1409.779,88.417c0.707,6.397 1.414,12.793 2.121,19.19c-1.499,-4.545 -2.998,-9.09 -4.497,-13.635l2.375,-5.555Z" style="fill:#004985;fill-opacity:0.67;"/><path d="M36.177,1228.267c-1.462,6.042 -2.924,12.084 -4.385,18.126c-0.992,-9.661 0.31,-9.109 4.385,-18.126Z" style="fill:#004e80;fill-opacity:0.35;"/><path d="M1805.679,1353.252c14.234,2.85 10.749,7.361 11.573,8.186l-4.987,-1.599c-2.195,-2.195 -4.391,-4.391 -6.586,-6.586Z" style="fill:#7d7d7c;fill-opacity:0.15;"/><path d="M1441.831,986.017c0.824,0.824 5.336,-2.66 8.186,11.573c-2.195,-2.195 -4.391,-4.391 -6.586,-6.586l-1.599,-4.987Z" style="fill:#7d7d7c;fill-opacity:0.15;"/><path d="M1560.385,1104.571c0.824,0.824 5.336,-2.66 8.186,11.573c-2.195,-2.195 -4.391,-4.391 -6.586,-6.586l-1.599,-4.987Z" style="fill:#7d7d7c;fill-opacity:0.15;"/><path d="M1435.245,979.431c2.195,2.195 4.391,4.391 6.586,6.586l1.599,4.987c-2.195,-2.195 -4.391,-4.391 -6.586,-6.586l-1.599,-4.987Z" style="fill:#7d7d7c;fill-opacity:0.15;"/><path d="M1481.349,1025.535c2.195,2.195 4.391,4.391 6.586,6.586l1.599,4.987c-2.195,-2.195 -4.391,-4.391 -6.586,-6.586l-1.599,-4.987Z" style="fill:#7d7d7c;fill-opacity:0.15;"/><path d="M1534.04,1078.226c2.195,2.195 4.391,4.391 6.586,6.586l1.599,4.987c-2.195,-2.195 -4.391,-4.391 -6.586,-6.586l-1.599,-4.987Z" style="fill:#7d7d7c;fill-opacity:0.15;"/><path d="M1428.659,972.845c2.195,2.195 4.391,4.391 6.586,6.586l1.599,4.987c-2.195,-2.195 -4.391,-4.391 -6.586,-6.586l-1.599,-4.987Z" style="fill:#7d7d7c;fill-opacity:0.15;"/><path d="M1527.454,1071.64c2.195,2.195 4.391,4.391 6.586,6.586l1.599,4.987c-2.195,-2.195 -4.391,-4.391 -6.586,-6.586l-1.599,-4.987Z" style="fill:#7d7d7c;fill-opacity:0.15;"/><path d="M1713.47,1261.044c14.234,2.85 10.749,7.361 11.573,8.186l-4.987,-1.599c-2.195,-2.195 -4.391,-4.391 -6.586,-6.586Z" style="fill:#7d7d7c;fill-opacity:0.15;"/><path d="M1720.056,1267.63l4.987,1.599c2.195,2.195 4.391,4.391 6.586,6.586l-4.987,-1.599c-2.195,-2.195 -4.391,-4.391 -6.586,-6.586Z" style="fill:#7d7d7c;fill-opacity:0.15;"/><path d="M1726.643,1274.217l4.987,1.599c2.195,2.195 4.391,4.391 6.586,6.586l-4.987,-1.599c-2.195,-2.195 -4.391,-4.391 -6.586,-6.586Z" style="fill:#7d7d7c;fill-opacity:0.15;"/><path d="M1733.229,1280.803l4.987,1.599c2.195,2.195 4.391,4.391 6.586,6.586l-4.987,-1.599c-2.195,-2.195 -4.391,-4.391 -6.586,-6.586Z" style="fill:#7d7d7c;fill-opacity:0.15;"/><path d="M1759.574,1307.148c14.234,2.85 10.749,7.361 11.573,8.186l-4.987,-1.599c-2.195,-2.195 -4.391,-4.391 -6.586,-6.586Z" style="fill:#7d7d7c;fill-opacity:0.15;"/><path d="M1766.161,1313.735l4.987,1.599c2.195,2.195 4.391,4.391 6.586,6.586l-4.987,-1.599c-2.195,-2.195 -4.391,-4.391 -6.586,-6.586Z" style="fill:#7d7d7c;fill-opacity:0.15;"/><path d="M1772.747,1320.321l4.987,1.599c2.195,2.195 4.391,4.391 6.586,6.586l-4.987,-1.599c-2.195,-2.195 -4.391,-4.391 -6.586,-6.586Z" style="fill:#7d7d7c;fill-opacity:0.15;"/><path d="M1779.333,1326.907l4.987,1.599c2.195,2.195 4.391,4.391 6.586,6.586l-4.987,-1.599c-2.195,-2.195 -4.391,-4.391 -6.586,-6.586Z" style="fill:#7d7d7c;fill-opacity:0.15;"/><path d="M1474.763,1018.949c2.195,2.195 4.391,4.391 6.586,6.586l1.599,4.987c-2.195,-2.195 -4.391,-4.391 -6.586,-6.586l-1.599,-4.987Z" style="fill:#7d7d7c;fill-opacity:0.15;"/><path d="M1494.522,1038.708c0.824,0.824 5.336,-2.66 8.186,11.573c-2.195,-2.195 -4.391,-4.391 -6.586,-6.586l-1.599,-4.987Z" style="fill:#7d7d7c;fill-opacity:0.15;"/><path d="M1520.867,1065.053c2.195,2.195 4.391,4.391 6.586,6.586l1.599,4.987c-2.195,-2.195 -4.391,-4.391 -6.586,-6.586l-1.599,-4.987Z" style="fill:#7d7d7c;fill-opacity:0.15;"/><path d="M1547.213,1091.399c2.195,2.195 4.391,4.391 6.586,6.586l1.599,4.987c-2.195,-2.195 -4.391,-4.391 -6.586,-6.586l-1.599,-4.987Z" style="fill:#7d7d7c;fill-opacity:0.15;"/><path d="M1692.112,1236.298c0.824,0.824 5.336,-2.66 8.186,11.573c-2.195,-2.195 -4.391,-4.391 -6.586,-6.586l-1.599,-4.987Z" style="fill:#7d7d7c;fill-opacity:0.15;"/><path d="M1468.177,1012.363c2.195,2.195 4.391,4.391 6.586,6.586l1.599,4.987c-2.195,-2.195 -4.391,-4.391 -6.586,-6.586l-1.599,-4.987Z" style="fill:#7d7d7c;fill-opacity:0.15;"/><path d="M1487.936,1032.122c2.195,2.195 4.391,4.391 6.586,6.586l1.599,4.987c-2.195,-2.195 -4.391,-4.391 -6.586,-6.586l-1.599,-4.987Z" style="fill:#7d7d7c;fill-opacity:0.15;"/><path d="M1514.281,1058.467c2.195,2.195 4.391,4.391 6.586,6.586l1.599,4.987c-2.195,-2.195 -4.391,-4.391 -6.586,-6.586l-1.599,-4.987Z" style="fill:#7d7d7c;fill-opacity:0.15;"/><path d="M1540.626,1084.812c2.195,2.195 4.391,4.391 6.586,6.586l1.599,4.987c-2.195,-2.195 -4.391,-4.391 -6.586,-6.586l-1.599,-4.987Z" style="fill:#7d7d7c;fill-opacity:0.15;"/><path d="M1461.59,1005.776c2.195,2.195 4.391,4.391 6.586,6.586l1.599,4.987c-2.195,-2.195 -4.391,-4.391 -6.586,-6.586l-1.599,-4.987Z" style="fill:#7d7d7c;fill-opacity:0.15;"/><path d="M1553.799,1097.985c2.195,2.195 4.391,4.391 6.586,6.586l1.599,4.987c-2.195,-2.195 -4.391,-4.391 -6.586,-6.586l-1.599,-4.987Z" style="fill:#7d7d7c;fill-opacity:0.15;"/><path d="M1739.815,1287.389l4.987,1.599c2.195,2.195 4.391,4.391 6.586,6.586l-4.987,-1.599c-2.195,-2.195 -4.391,-4.391 -6.586,-6.586Z" style="fill:#7d7d7c;fill-opacity:0.15;"/><path d="M1785.92,1333.493l4.987,1.599c2.195,2.195 4.391,4.391 6.586,6.586l-4.987,-1.599c-2.195,-2.195 -4.391,-4.391 -6.586,-6.586Z" style="fill:#7d7d7c;fill-opacity:0.15;"/><path d="M1422.072,966.259c2.196,2.195 4.391,4.391 6.587,6.586l1.599,4.987c-2.195,-2.195 -4.391,-4.391 -6.586,-6.586l-1.6,-4.987Z" style="fill:#7d7d7c;fill-opacity:0.15;"/><path d="M1580.144,1124.33c2.195,2.195 4.391,4.391 6.586,6.586l1.614,4.972c-2.2,-2.19 -4.4,-4.381 -6.601,-6.571l-1.599,-4.987Z" style="fill:#7d7d7c;fill-opacity:0.15;"/><path d="M1415.472,959.683c2.2,2.192 4.4,4.384 6.6,6.576l1.6,4.987c-2.196,-2.195 -4.391,-4.391 -6.587,-6.586l-1.614,-4.976Z" style="fill:#7d7d7c;fill-opacity:0.15;"/><path d="M1586.731,1130.916c1.427,1.409 4.561,-0.811 5.988,0.598c0,0 2.231,9.878 2.425,10.737c-2.267,-2.121 -4.533,-4.242 -6.8,-6.363l-1.614,-4.972Z" style="fill:#7d7d7c;fill-opacity:0.16;"/><path d="M1408.784,953.179c2.229,2.168 4.458,4.336 6.687,6.504l1.614,4.976c-2.197,-2.194 -4.395,-4.387 -6.592,-6.581l-1.709,-4.9Z" style="fill:#7c7c7b;fill-opacity:0.15;"/><path d="M1648.034,1188.186c1.47,2.339 4.071,0.842 6.392,13.358c-4.915,-6.02 -4.903,-5.62 -6.392,-13.358Z" style="fill:#858584;fill-opacity:0.21;"/><path d="M1421.738,1544.541c1.455,6.082 2.909,12.165 4.364,18.247c-3.761,-8.877 -5.314,-8.441 -4.364,-18.247Z" style="fill:#004f81;fill-opacity:0.37;"/><path d="M1036.727,1226.655c1.935,2.407 3.87,4.815 5.806,7.222l1.55,5.133c-2.113,-2.255 -4.226,-4.51 -6.338,-6.766l-1.018,-5.59Z" style="fill:#00437b;fill-opacity:0.32;"/><path d="M785.043,1734.421l5,-1.629c-3.91,2.672 -7.82,5.345 -11.73,8.017c2.243,-2.129 4.486,-4.258 6.729,-6.388Z" style="fill:#00437b;fill-opacity:0.29;"/><path d="M1636.097,1385.453c5.343,5.841 5.217,5.906 5.77,6.308c2.614,1.902 3.267,-0.385 6.102,1.678l-5.849,2.782l-4.961,-5.16l-1.063,-5.608Z" style="fill:#00456c;fill-opacity:0.23;"/><path d="M817.872,1701.435c-2.784,10.881 -5.492,8.995 -8.12,11.671l1.661,-4.986c2.153,-2.228 4.305,-4.457 6.458,-6.685Z" style="fill:#00437b;fill-opacity:0.29;"/><path d="M791.783,1727.987l4.948,-1.706c-2.229,2.17 -4.458,4.34 -6.687,6.51l-5,1.629c2.247,-2.144 4.493,-4.289 6.74,-6.433Z" style="fill:#00427a;fill-opacity:0.29;"/><path d="M1714.183,449.857l18.651,3.575c-9.817,0.901 -9.563,0.102 -18.651,-3.575Z" style="fill:#004178;fill-opacity:0.41;"/><path d="M811.414,1708.12l-1.661,4.986c-2.165,2.22 -4.33,4.44 -6.495,6.66l1.773,-4.861c2.128,-2.262 4.256,-4.523 6.383,-6.785Z" style="fill:#004279;fill-opacity:0.3;"/><path d="M1511.491,1706.924c6.641,3.289 6.061,3.269 11.255,8.265l-4.429,-1.649c-2.275,-2.205 -4.55,-4.411 -6.826,-6.616Z" style="fill:#004977;fill-opacity:0.32;"/><path d="M1647.783,708.948l13.585,-0.052c-4.191,1.266 -8.381,2.532 -12.572,3.799l-1.013,-3.746Z" style="fill:#847922;fill-opacity:0.17;"/><path d="M108.558,1103.588c-2.702,4.031 -5.404,8.062 -8.107,12.094c2.702,-4.031 5.404,-8.062 8.107,-12.094Z" style="fill:#004572;fill-opacity:0.35;"/><path d="M1542.43,1735.097c2.154,2.246 4.308,4.492 6.463,6.737l1.847,4.477c-2.216,-2.257 -4.433,-4.514 -6.649,-6.771l-1.66,-4.443Z" style="fill:#004876;fill-opacity:0.33;"/><path d="M1081.49,1273.943c5.03,5.123 5.001,4.548 8.4,11.106c-2.213,-2.275 -4.425,-4.55 -6.638,-6.825l-1.762,-4.281Z" style="fill:#004075;fill-opacity:0.33;"/><path d="M1505.124,310.35c6.473,3.394 5.87,3.405 10.809,8.724c-11.977,-4.457 -9.492,-7.357 -10.809,-8.724Z" style="fill:#003f74;fill-opacity:0.32;"/><path d="M410.598,933.884l19.133,-1.772c-9.635,2.703 -9.385,2.896 -19.133,1.772Z" style="fill:#004978;fill-opacity:0.35;"/><path d="M383.691,938.654c-6.669,1.739 -13.339,3.479 -20.008,5.218c6.669,-1.739 13.339,-3.479 20.008,-5.218Z" style="fill:#004875;fill-opacity:0.36;"/></g></svg>