<svg version="1.1" id="Layer_1" xmlns="http://www.w3.org/2000/svg" xmlns:xlink="http://www.w3.org/1999/xlink" x="0px" y="0px"
	 width="100%" viewBox="0 0 406 407" enable-background="new 0 0 406 407" xml:space="preserve">
<path fill="#FFFFFF" opacity="1.000000" stroke="none" 
	d="
M185.000000,408.000000 
	C123.352135,408.000000 62.204277,408.000000 1.028208,408.000000 
	C1.028208,272.393860 1.028208,136.787704 1.028208,1.090772 
	C136.231155,1.090772 271.462402,1.090772 406.846802,1.090772 
	C406.846802,136.666534 406.846802,272.333252 406.846802,408.000000 
	C333.121094,408.000000 259.310547,408.000000 185.000000,408.000000 
M204.954514,274.977509 
	C228.140381,274.977509 251.326233,274.977509 274.512085,274.977509 
	C274.836487,274.427185 275.160858,273.876862 275.485229,273.326538 
	C263.990082,262.273224 252.494934,251.219910 241.927109,240.025909 
	C252.800323,240.025909 263.673553,240.025909 274.887573,240.025909 
	C274.887573,228.322144 274.895905,217.119019 274.850281,205.916092 
	C274.848785,205.554047 274.295807,205.194260 274.382660,204.094604 
	C274.588348,203.165787 274.972229,202.237213 274.973602,201.308090 
	C275.006256,179.351685 275.001495,157.395203 274.980743,135.438751 
	C274.980011,134.672409 274.744324,133.906281 274.622223,133.164825 
	C250.891068,133.164825 227.455170,133.164825 203.089676,133.022430 
	C179.857269,133.022430 156.624863,133.022430 133.270432,133.022430 
	C133.270432,145.219391 133.270432,156.929214 133.270432,169.106018 
	C144.916626,169.106018 156.300690,169.106018 167.916550,169.106018 
	C167.916550,181.018982 167.916550,192.465073 166.990509,203.990326 
	C155.743958,203.990326 144.497421,203.990326 133.288086,203.990326 
	C133.288086,227.974487 133.288086,251.344162 133.288086,274.864929 
	C145.358414,274.864929 157.141983,274.864929 169.865234,274.967072 
	C181.253235,274.926514 192.641235,274.885925 204.954514,274.977509 
z"/>
<path fill="#004884" opacity="1.000000" stroke="none" 
	d="
M204.019272,133.164825 
	C227.455170,133.164825 250.891068,133.164825 274.622223,133.164825 
	C274.744324,133.906281 274.980011,134.672409 274.980743,135.438751 
	C275.001495,157.395203 275.006256,179.351685 274.973602,201.308090 
	C274.972229,202.237213 274.588348,203.165787 273.756317,204.536438 
	C268.753296,204.596725 264.376617,204.215164 259.808929,203.501190 
	C242.357803,199.863556 228.330780,190.905273 218.233612,176.887878 
	C212.652100,169.139374 209.378189,159.728607 205.043213,150.628998 
	C204.688004,144.515488 204.353638,138.840164 204.019272,133.164825 
z"/>
<path fill="#0082B9" opacity="1.000000" stroke="none" 
	d="
M203.554474,133.093628 
	C204.353638,138.840164 204.688004,144.515488 205.015198,151.093933 
	C204.949936,169.329407 204.891830,186.661774 204.632477,204.130035 
	C204.186813,204.494385 204.026901,204.771606 203.488266,205.055481 
	C191.712051,205.038010 180.399033,205.062653 168.953003,204.835602 
	C168.518845,204.359695 168.217697,204.135437 167.916550,203.911179 
	C167.916550,192.465073 167.916550,181.018982 167.916550,169.106018 
	C156.300690,169.106018 144.916626,169.106018 133.270432,169.106018 
	C133.270432,156.929214 133.270432,145.219391 133.270432,133.022430 
	C156.624863,133.022430 179.857269,133.022430 203.554474,133.093628 
z"/>
<path fill="#005286" opacity="1.000000" stroke="none" 
	d="
M167.453522,203.950745 
	C168.217697,204.135437 168.518845,204.359695 168.914627,205.298767 
	C169.051666,216.984894 169.094055,227.956207 169.084747,239.398148 
	C168.997208,251.534164 168.961380,263.199554 168.925568,274.864929 
	C157.141983,274.864929 145.358414,274.864929 133.288086,274.864929 
	C133.288086,251.344162 133.288086,227.974487 133.288086,203.990326 
	C144.497421,203.990326 155.743958,203.990326 167.453522,203.950745 
z"/>
<path fill="#0097D7" opacity="1.000000" stroke="none" 
	d="
M203.951462,205.097580 
	C204.026901,204.771606 204.186813,204.494385 204.777466,204.439545 
	C216.360260,215.742126 227.596817,226.871094 238.911163,238.351929 
	C239.659225,239.191406 240.329514,239.678986 240.999802,240.166595 
	C252.494934,251.219910 263.990082,262.273224 275.485229,273.326538 
	C275.160858,273.876862 274.836487,274.427185 274.512085,274.977509 
	C251.326233,274.977509 228.140381,274.977509 204.486389,274.610901 
	C204.053055,273.845245 204.087845,273.446167 204.399933,272.734375 
	C204.784821,264.658356 204.984772,256.894684 204.954102,249.131943 
	C204.942001,246.071045 204.415573,243.012192 204.059265,239.705261 
	C203.945938,239.295151 203.896683,239.132217 203.912598,238.504807 
	C203.968994,227.059418 203.960220,216.078506 203.951462,205.097580 
z"/>
<path fill="#FBB900" opacity="1.000000" stroke="none" 
	d="
M241.463470,240.096252 
	C240.329514,239.678986 239.659225,239.191406 238.981476,237.888123 
	C238.974014,226.151520 238.974014,215.230591 238.974014,203.833588 
	C246.408844,203.833588 253.204391,203.833588 259.999939,203.833588 
	C264.376617,204.215164 268.753296,204.596725 273.564941,204.905853 
	C274.295807,205.194260 274.848785,205.554047 274.850281,205.916092 
	C274.895905,217.119019 274.887573,228.322144 274.887573,240.025909 
	C263.673553,240.025909 252.800323,240.025909 241.463470,240.096252 
z"/>
<path fill="#9D9D9C" opacity="1.000000" stroke="none" 
	d="
M203.847443,238.969269 
	C203.896683,239.132217 203.945938,239.295151 204.015213,240.175781 
	C204.064377,251.611343 204.093521,262.329224 204.122650,273.047119 
	C204.087845,273.446167 204.053055,273.845245 204.023743,274.544830 
	C192.641235,274.885925 181.253235,274.926514 169.395401,274.916016 
	C168.961380,263.199554 168.997208,251.534164 169.543182,239.424927 
	C181.318039,238.977127 192.582733,238.973206 203.847443,238.969269 
z"/>
<path fill="#FFFFFF" opacity="1.000000" stroke="none" 
	d="
M259.808929,203.501190 
	C253.204391,203.833588 246.408844,203.833588 238.974014,203.833588 
	C238.974014,215.230591 238.974014,226.151520 238.903687,237.536240 
	C227.596817,226.871094 216.360260,215.742126 204.978729,204.303665 
	C204.891830,186.661774 204.949936,169.329407 205.036041,151.532104 
	C209.378189,159.728607 212.652100,169.139374 218.233612,176.887878 
	C228.330780,190.905273 242.357803,199.863556 259.808929,203.501190 
z"/>
<path fill="#FFFFFF" opacity="1.000000" stroke="none" 
	d="
M203.912598,238.504807 
	C192.582733,238.973206 181.318039,238.977127 169.594894,238.954285 
	C169.094055,227.956207 169.051666,216.984894 169.047638,205.550446 
	C180.399033,205.062653 191.712051,205.038010 203.488266,205.055481 
	C203.960220,216.078506 203.968994,227.059418 203.912598,238.504807 
z"/>
<path fill="#4EA0CE" opacity="1.000000" stroke="none" 
	d="
M204.399933,272.734375 
	C204.093521,262.329224 204.064377,251.611343 204.079315,240.422928 
	C204.415573,243.012192 204.942001,246.071045 204.954102,249.131943 
	C204.984772,256.894684 204.784821,264.658356 204.399933,272.734375 
z"/>
</svg>