<?xml version="1.0" encoding="utf-8"?>
<!-- Generator: Adobe Illustrator 22.0.0, SVG Export Plug-In . SVG Version: 6.00 Build 0)  -->
<svg version="1.1" id="Calque_1" xmlns="http://www.w3.org/2000/svg" xmlns:xlink="http://www.w3.org/1999/xlink" x="0px" y="0px"
	 viewBox="0 0 288.6 103" style="enable-background:new 0 0 288.6 103;" xml:space="preserve">
<style type="text/css">
	.st0{fill:#07133A;}
	.st1{fill:#E31421;}
</style>
<g>
	<path class="st0" d="M98.8,96.4V92V59.8h-5v-6.3h11.7v36.6h4.9v6.3H98.8z"/>
	<path class="st0" d="M115.7,83.5c0.4,1.8,1.2,3.4,2.5,4.9c1.8,1.9,4.2,2.8,7,2.8c0.5,0,1.1-0.1,1.8-0.3c0.7-0.2,1.5-0.4,2.2-0.7
		c0.8-0.3,1.5-0.5,2.2-0.8c0.7-0.3,1.3-0.5,1.8-0.7l1.7,5.8c-1.5,0.6-2.9,1-3.9,1.4c-1.1,0.3-2.2,0.6-3.4,0.9
		c-1.2,0.3-2.1,0.4-2.9,0.4c-4.6,0-8.4-1.6-11.4-4.7c-3-3.1-4.5-7-4.5-11.6c0-4.7,1.5-8.6,4.4-11.7c3-3.1,6.8-4.6,11.3-4.6
		c4.5,0,8.2,1.5,11,4.6c1.4,1.6,2.5,3.5,3.3,5.7c0.8,2.2,1.2,5.1,1.4,8.5H115.7z M130.4,73.2c-1.5-1.5-3.5-2.3-6-2.3
		c-2.6,0-4.7,0.9-6.4,2.8c-0.9,1-1.5,2.2-2,3.5h16.8C132.3,75.6,131.5,74.3,130.4,73.2z"/>
	<path class="st0" d="M163,94.7c-1.1,0.9-2.4,1.5-3.9,2c-1.5,0.4-3.1,0.6-4.8,0.6c-2,0-3.8-0.4-5.4-1.1c-0.4-0.2-0.8-0.4-1.2-0.6
		v0.9h-6.4V83.3h6.4c0,2,0.2,3.4,0.5,4.3s0.8,1.6,1.3,2c1.2,1.1,2.9,1.7,5,1.7c1.6,0,3-0.4,4.1-1.2c0.5-0.4,0.9-0.8,1.1-1.2
		c0.2-0.4,0.3-0.8,0.3-1.3c0-0.6-0.1-1.1-0.2-1.4c-0.2-0.3-0.4-0.6-0.6-0.8c-0.4-0.3-1-0.6-1.9-0.9s-2.1-0.5-3.6-0.8
		c-1.7-0.3-3.2-0.7-4.5-1.2s-2.4-1-3.3-1.7c-1.1-0.8-1.8-1.7-2.3-2.9c-0.5-1.2-0.7-2.4-0.7-3.8c0-2.9,1.1-5.3,3.2-7
		c2-1.7,4.4-2.5,7.3-2.5c1.1,0,2.1,0.1,3.1,0.4c1,0.3,1.9,0.6,2.8,1.2h6v11.5h-6.2c-0.1-1.7-0.3-2.9-0.5-3.7s-0.7-1.3-1.2-1.8
		c-0.5-0.5-1.1-0.8-1.8-1.1c-0.6-0.2-1.4-0.4-2.3-0.4c-0.8,0-1.4,0.1-1.9,0.3c-0.5,0.2-0.9,0.4-1.2,0.7c-0.7,0.7-1,1.4-1,2.3
		c0,0.5,0.1,0.9,0.2,1.2c0.1,0.3,0.3,0.5,0.5,0.6c0.3,0.2,0.9,0.4,1.7,0.7s1.9,0.5,3.4,0.8c2,0.4,3.8,0.8,5.4,1.4
		c1.5,0.5,2.7,1.2,3.6,2.1c0.8,0.8,1.5,1.8,1.8,2.9c0.4,1.1,0.6,2.3,0.6,3.6C166.5,90.3,165.3,92.8,163,94.7z"/>
</g>
<g>
	<path class="st1" d="M189.6,42.3c-1.3,1.2-2.8,1.8-4.4,1.8c-1.6,0-3.1-0.6-4.4-1.8c-1.2-1.3-1.8-2.8-1.8-4.4c0-1.8,0.6-3.3,1.8-4.5
		c1.3-1.2,2.8-1.8,4.4-1.8c1.6,0,3.1,0.6,4.4,1.8c1.2,1.3,1.8,2.8,1.8,4.4C191.4,39.6,190.8,41.1,189.6,42.3 M181.6,96.5l-0.2-3.9
		V59.7h-7.1v-9.4h17.1v36.8h7v9.4H181.6z"/>
	<path class="st1" d="M235.3,96.5v-3.2c-0.5,0.3-1,0.6-1.5,0.9c-0.5,0.3-1.1,0.6-1.6,0.9c-3.1,1.4-6.4,2.1-9.8,2.1
		c-1.9,0-3.6-0.3-5.2-0.8c-1.6-0.5-3-1.4-4.3-2.7c-1.3-1.2-2.2-2.6-2.8-4.2c-0.6-1.6-0.9-3.3-0.9-5.2V59.7H202v-9.4h17.1v33.1
		c0,2.7,1.3,4.1,4,4.1c2,0,4.2-0.6,6.6-1.8c2.2-1.1,4.1-2.4,5.6-3.9V56.9v-6.6h10v36.8h7v9.4H235.3z"/>
	<path class="st1" d="M274.9,97.4c-1.6,0-3.1-0.2-4.3-0.6c-1.3-0.4-2.4-1.2-3.4-2.2c-1-1-1.6-2.1-2-3.4c-0.4-1.3-0.6-2.7-0.6-4.2
		V59.7h-7.2v-9.4h7.2v-9l10-0.3v9.3h8.5v9.4h-8.5v26.5c0,0.9,0.1,1.5,0.3,1.7h0.4l7.8-1.3V96L274.9,97.4z"/>
</g>
<polygon class="st0" points="59,20.5 59,51.2 85.6,35.9 85.6,5.1 "/>
<polygon class="st0" points="32.3,66.6 32.3,97.4 59,82 59,51.2 "/>
<polygon class="st1" points="5.7,51.2 5.7,82 32.3,97.4 32.3,66.6 "/>
<polygon class="st1" points="32.3,5.1 32.3,35.9 59,51.2 59,20.5 "/>
</svg>
