<svg version="1.1" id="Layer_1" xmlns="http://www.w3.org/2000/svg" xmlns:xlink="http://www.w3.org/1999/xlink" x="0px" y="0px"
	 width="100%" viewBox="0 0 407 407" enable-background="new 0 0 407 407" xml:space="preserve">
<path fill="#FFFFFF" opacity="1.000000" stroke="none" 
	d="
M267.000000,408.000000 
	C178.027176,408.000000 89.554352,408.000000 1.040765,408.000000 
	C1.040765,272.402191 1.040765,136.804352 1.040765,1.103257 
	C136.556107,1.103257 272.112305,1.103257 407.834259,1.103257 
	C407.834259,136.666504 407.834259,272.333221 407.834259,408.000000 
	C361.137756,408.000000 314.318878,408.000000 267.000000,408.000000 
M98.036118,134.527130 
	C98.077400,134.689194 98.118690,134.851242 98.017075,135.939224 
	C98.063972,146.946533 98.110878,157.953857 98.053253,169.481644 
	C98.091019,169.654678 98.128784,169.827713 98.026031,170.928528 
	C98.072128,193.614517 98.118233,216.300507 98.064331,239.501617 
	C98.096275,239.673599 98.128227,239.845566 98.017639,240.942978 
	C98.017639,263.852814 98.017639,286.762634 98.017639,310.086243 
	C114.684380,310.330872 129.011139,305.616333 141.893585,295.725128 
	C154.815445,285.803711 163.171509,273.007446 167.527802,257.591217 
	C168.004211,263.120880 168.478317,268.623810 168.992157,275.043213 
	C168.992157,286.613159 168.992157,298.183136 168.992157,309.835480 
	C181.112717,309.835480 192.564453,309.835480 204.941254,309.981873 
	C216.316589,309.935852 227.691940,309.889832 239.979538,309.986115 
	C263.278687,309.986115 286.577850,309.986115 311.271240,309.986115 
	C298.764771,297.285278 287.382294,285.725922 276.927124,274.025909 
	C287.803284,274.025909 298.679413,274.025909 309.998688,274.025909 
	C309.998688,263.133240 310.027466,252.748383 309.955322,242.364227 
	C309.947906,241.295074 309.338043,240.230103 309.745178,238.673080 
	C309.745178,215.517532 309.745178,192.362000 309.745178,168.935150 
	C290.560730,168.935150 271.813751,168.935150 253.358383,168.203247 
	C255.100891,167.840149 256.871155,167.576462 258.581696,167.098923 
	C280.981537,160.845413 296.275146,146.528992 305.126587,125.306847 
	C308.556427,117.083527 310.457184,108.381462 309.897156,99.344421 
	C274.817444,96.597504 238.466171,127.624611 238.903870,168.870651 
	C238.903870,168.870651 238.853287,168.932388 237.942093,168.989441 
	C215.628021,168.937256 193.313950,168.885071 171.262405,168.235672 
	C194.100540,145.395920 216.938690,122.556168 240.326614,99.166603 
	C215.847641,99.166603 192.423767,99.166603 168.073135,99.017784 
	C157.055069,99.066620 146.037003,99.115463 134.549713,99.039238 
	C134.549713,99.039238 134.075012,99.141563 133.133743,99.035080 
	C121.738869,99.075378 110.343987,99.115669 98.199486,99.539223 
	C98.184235,111.039284 98.168991,122.539337 98.036118,134.527130 
z"/>
<path fill="#004884" opacity="1.000000" stroke="none" 
	d="
M168.952423,274.126740 
	C168.478317,268.623810 168.004211,263.120880 167.527802,257.591217 
	C163.171509,273.007446 154.815445,285.803711 141.893585,295.725128 
	C129.011139,305.616333 114.684380,310.330872 98.017639,310.086243 
	C98.017639,286.762634 98.017639,263.852814 98.546219,240.474548 
	C108.867622,240.004089 118.660805,240.043472 128.452881,239.957001 
	C129.987640,239.943436 131.517349,239.358139 133.041412,239.017395 
	C133.033432,238.997574 132.995148,239.016495 133.233612,239.014496 
	C133.472061,239.012497 133.948761,239.012146 133.965714,239.015656 
	C133.982666,239.019165 134.015244,239.007385 134.289154,239.325119 
	C144.322723,239.761902 154.082260,239.920547 163.842209,239.955154 
	C165.227051,239.960068 166.614029,239.361755 168.275177,238.999802 
	C168.728165,238.903717 168.905991,238.850464 169.545258,238.837372 
	C179.772552,238.894272 189.538895,238.967133 199.303818,238.879776 
	C201.221939,238.862610 203.134521,238.226395 205.515030,237.931122 
	C216.977768,238.046173 227.975143,238.105789 238.993546,238.388123 
	C239.014572,238.610825 239.115875,239.046600 239.104218,239.512085 
	C239.084122,263.266296 239.075699,286.555054 239.067261,309.843811 
	C227.691940,309.889832 216.316589,309.935852 204.473877,309.450928 
	C204.006516,297.398529 204.006516,285.877106 204.006516,274.126740 
	C191.773087,274.126740 180.362762,274.126740 168.952423,274.126740 
z"/>
<path fill="#0082B9" opacity="1.000000" stroke="none" 
	d="
M253.066803,168.935150 
	C271.813751,168.935150 290.560730,168.935150 309.745178,168.935150 
	C309.745178,192.362000 309.745178,215.517532 308.914215,238.846497 
	C302.055481,238.624420 296.027679,238.228912 289.811340,237.513748 
	C273.879639,232.828827 260.821655,224.356796 252.078781,210.494217 
	C247.268417,202.866974 244.006516,194.263138 240.032227,185.654037 
	C239.629761,179.783112 239.241516,174.357742 238.853287,168.932388 
	C238.853287,168.932388 238.903870,168.870651 239.405396,168.919495 
	C244.293564,168.957260 248.680176,168.946198 253.066803,168.935150 
z"/>
<path fill="#0097D7" opacity="1.000000" stroke="none" 
	d="
M238.397690,168.960907 
	C239.241516,174.357742 239.629761,179.783112 240.012207,186.116089 
	C240.006424,192.927689 240.006424,198.831696 240.006424,205.166351 
	C228.008545,205.166351 216.650681,205.166351 205.049667,205.166351 
	C205.049667,216.366684 205.049667,227.121185 205.049667,237.875671 
	C203.134521,238.226395 201.221939,238.862610 199.303818,238.879776 
	C189.538895,238.967133 179.772552,238.894272 169.519882,238.389771 
	C169.001770,214.995148 168.970474,192.088272 168.980804,169.118835 
	C169.022446,169.056274 169.058426,168.910355 169.383209,168.949738 
	C170.138611,168.937027 170.569244,168.884949 170.999878,168.832870 
	C193.313950,168.885071 215.628021,168.937256 238.397690,168.960907 
z"/>
<path fill="#023E7C" opacity="1.000000" stroke="none" 
	d="
M98.157776,168.961182 
	C98.110878,157.953857 98.063972,146.946533 98.264900,135.393219 
	C98.741859,134.716034 98.927010,134.538910 99.104141,134.238052 
	C99.140083,134.160278 99.018494,134.039536 99.483612,134.092834 
	C111.207642,134.146133 122.466553,134.146133 134.297287,134.146133 
	C134.297287,122.319504 134.297287,111.193886 134.458771,99.954987 
	C134.806290,99.647194 134.939178,99.421394 135.018936,99.164307 
	C146.037003,99.115463 157.055069,99.066620 168.536530,99.549652 
	C169.019424,123.024467 169.038925,145.967407 169.058426,168.910355 
	C169.058426,168.910355 169.022446,169.056274 168.520584,169.061401 
	C158.199936,169.051346 148.380798,168.990921 138.562729,169.067596 
	C137.008575,169.079742 135.459229,169.710312 133.669434,170.030212 
	C133.431198,170.005447 132.954132,170.049042 133.001358,170.038605 
	C133.048584,170.028152 133.047562,169.931427 132.760712,169.619293 
	C121.035179,169.191833 109.596474,169.076508 98.157776,168.961182 
z"/>
<path fill="#004884" opacity="1.000000" stroke="none" 
	d="
M253.212585,168.569199 
	C248.680176,168.946198 244.293564,168.957260 239.445251,168.921692 
	C238.466171,127.624611 274.817444,96.597504 309.897156,99.344421 
	C310.457184,108.381462 308.556427,117.083527 305.126587,125.306847 
	C296.275146,146.528992 280.981537,160.845413 258.581696,167.098923 
	C256.871155,167.576462 255.100891,167.840149 253.212585,168.569199 
z"/>
<path fill="#0097D7" opacity="1.000000" stroke="none" 
	d="
M239.523407,309.914978 
	C239.075699,286.555054 239.084122,263.266296 239.353516,239.488388 
	C239.782288,238.985825 239.950119,238.972427 240.421951,239.090271 
	C251.761765,250.147720 262.797577,261.073883 273.911194,272.351929 
	C274.659241,273.191406 275.329529,273.678986 275.999817,274.166565 
	C287.382294,285.725922 298.764771,297.285278 311.271240,309.986115 
	C286.577850,309.986115 263.278687,309.986115 239.523407,309.914978 
z"/>
<path fill="#FBB900" opacity="1.000000" stroke="none" 
	d="
M169.383209,168.949738 
	C169.038925,145.967407 169.019424,123.024467 168.999908,99.624069 
	C192.423767,99.166603 215.847641,99.166603 240.326614,99.166603 
	C216.938690,122.556168 194.100540,145.395920 171.131134,168.534271 
	C170.569244,168.884949 170.138611,168.937027 169.383209,168.949738 
z"/>
<path fill="#FBB900" opacity="1.000000" stroke="none" 
	d="
M98.164337,238.986481 
	C98.118233,216.300507 98.072128,193.614517 98.553596,170.464493 
	C110.403297,169.977448 121.725426,169.954437 133.047562,169.931427 
	C133.047562,169.931427 133.048584,170.028152 133.017426,170.503952 
	C132.989227,193.658661 132.992188,216.337585 132.995148,239.016495 
	C132.995148,239.016495 133.033432,238.997574 132.569183,239.004517 
	C120.791389,239.003128 109.477867,238.994812 98.164337,238.986481 
z"/>
<path fill="#FBB900" opacity="1.000000" stroke="none" 
	d="
M276.463470,274.096252 
	C275.329529,273.678986 274.659241,273.191406 273.981506,271.888123 
	C273.974030,260.152008 273.974030,249.231613 273.974030,237.833389 
	C279.740509,237.833389 284.870209,237.833389 289.999908,237.833389 
	C296.027679,238.228912 302.055481,238.624420 308.545471,239.091553 
	C309.338043,240.230103 309.947906,241.295074 309.955322,242.364227 
	C310.027466,252.748383 309.998688,263.133240 309.998688,274.025909 
	C298.679413,274.025909 287.803284,274.025909 276.463470,274.096252 
z"/>
<path fill="#0097D7" opacity="1.000000" stroke="none" 
	d="
M168.972290,274.584961 
	C180.362762,274.126740 191.773087,274.126740 204.006516,274.126740 
	C204.006516,285.877106 204.006516,297.398529 204.011353,309.377716 
	C192.564453,309.835480 181.112717,309.835480 168.992157,309.835480 
	C168.992157,298.183136 168.992157,286.613159 168.972290,274.584961 
z"/>
<path fill="#9D9D9C" opacity="1.000000" stroke="none" 
	d="
M134.297287,100.068260 
	C134.297287,111.193886 134.297287,122.319504 134.297287,134.146133 
	C122.466553,134.146133 111.207642,134.146133 99.476929,133.620758 
	C98.986450,121.782242 98.967781,110.469101 98.949112,99.155960 
	C110.343987,99.115669 121.738869,99.075378 133.617264,99.330208 
	C134.100784,99.625336 134.297287,100.068260 134.297287,100.068260 
z"/>
<path fill="#746B74" opacity="1.000000" stroke="none" 
	d="
M132.760712,169.619293 
	C121.725426,169.954437 110.403297,169.977448 98.623856,170.000610 
	C98.128784,169.827713 98.091019,169.654678 98.105515,169.221405 
	C109.596474,169.076508 121.035179,169.191833 132.760712,169.619293 
z"/>
<path fill="#AC8E5D" opacity="1.000000" stroke="none" 
	d="
M98.114334,239.244049 
	C109.477867,238.994812 120.791389,239.003128 132.577148,239.024323 
	C131.517349,239.358139 129.987640,239.943436 128.452881,239.957001 
	C118.660805,240.043472 108.867622,240.004089 98.617493,240.011841 
	C98.128227,239.845566 98.096275,239.673599 98.114334,239.244049 
z"/>
<path fill="#6F7895" opacity="1.000000" stroke="none" 
	d="
M98.574295,99.347595 
	C98.967781,110.469101 98.986450,121.782242 99.011810,133.567459 
	C99.018494,134.039536 99.140083,134.160278 98.885529,134.134079 
	C98.630974,134.107880 98.153740,134.039398 98.153740,134.039398 
	C98.168991,122.539337 98.184235,111.039284 98.574295,99.347595 
z"/>
<path fill="#3B5687" opacity="1.000000" stroke="none" 
	d="
M98.094925,134.283264 
	C98.153740,134.039398 98.630974,134.107880 98.849579,134.211853 
	C98.927010,134.538910 98.741859,134.716034 98.336349,134.930267 
	C98.118690,134.851242 98.077400,134.689194 98.094925,134.283264 
z"/>
<path fill="#3B5687" opacity="1.000000" stroke="none" 
	d="
M134.458771,99.954987 
	C134.297287,100.068260 134.100784,99.625336 134.087891,99.383453 
	C134.075012,99.141563 134.549713,99.039238 134.784332,99.101776 
	C134.939178,99.421394 134.806290,99.647194 134.458771,99.954987 
z"/>
<path fill="#FFFFFF" opacity="1.000000" stroke="none" 
	d="
M289.811340,237.513748 
	C284.870209,237.833389 279.740509,237.833389 273.974030,237.833389 
	C273.974030,249.231613 273.974030,260.152008 273.903717,271.536255 
	C262.797577,261.073883 251.761765,250.147720 240.323837,238.836090 
	C239.605331,238.355576 239.288925,238.260498 238.972519,238.165405 
	C227.975143,238.105789 216.977768,238.046173 205.515030,237.931122 
	C205.049667,227.121185 205.049667,216.366684 205.049667,205.166351 
	C216.650681,205.166351 228.008545,205.166351 240.006424,205.166351 
	C240.006424,198.831696 240.006424,192.927689 240.026459,186.561646 
	C244.006516,194.263138 247.268417,202.866974 252.078781,210.494217 
	C260.821655,224.356796 273.879639,232.828827 289.811340,237.513748 
z"/>
<path fill="#0082B9" opacity="1.000000" stroke="none" 
	d="
M133.907669,170.054962 
	C135.459229,169.710312 137.008575,169.079742 138.562729,169.067596 
	C148.380798,168.990921 158.199936,169.051346 168.478943,169.123962 
	C168.970474,192.088272 169.001770,214.995148 169.058441,238.349640 
	C168.905991,238.850464 168.728165,238.903717 167.807037,238.984009 
	C156.047577,239.009827 145.031403,239.008606 134.015244,239.007385 
	C134.015244,239.007385 133.982666,239.019165 133.987183,238.545776 
	C133.963669,215.399902 133.935669,192.727432 133.907669,170.054962 
z"/>
<path fill="#C4B154" opacity="1.000000" stroke="none" 
	d="
M133.669434,170.030212 
	C133.935669,192.727432 133.963669,215.399902 133.970215,238.542267 
	C133.948761,239.012146 133.472061,239.012497 133.233612,239.014496 
	C132.992188,216.337585 132.989227,193.658661 132.970200,170.514404 
	C132.954132,170.049042 133.431198,170.005447 133.669434,170.030212 
z"/>
<path fill="#358D9B" opacity="1.000000" stroke="none" 
	d="
M134.289154,239.325119 
	C145.031403,239.008606 156.047577,239.009827 167.531876,239.026840 
	C166.614029,239.361755 165.227051,239.960068 163.842209,239.955154 
	C154.082260,239.920547 144.322723,239.761902 134.289154,239.325119 
z"/>
<path fill="#0082B9" opacity="1.000000" stroke="none" 
	d="
M238.993546,238.388123 
	C239.288925,238.260498 239.605331,238.355576 240.019852,238.704834 
	C239.950119,238.972427 239.782288,238.985825 239.365173,239.022919 
	C239.115875,239.046600 239.014572,238.610825 238.993546,238.388123 
z"/>
</svg>